<svg width="54" height="51" viewBox="0 0 54 51" fill="none" xmlns="http://www.w3.org/2000/svg">
<path d="M39.8073 23.6375C39.5747 23.5322 39.3384 23.4309 39.0991 23.3339C38.6823 16.0805 34.4857 11.9279 27.4393 11.8854C27.4074 11.8852 27.3756 11.8852 27.3437 11.8852C23.129 11.8852 19.6237 13.5843 17.4662 16.6761L21.3415 19.1868C22.9533 16.8774 25.4827 16.385 27.3455 16.385C27.3671 16.385 27.3887 16.385 27.41 16.3852C29.7301 16.3992 31.4809 17.0363 32.614 18.2787C33.4387 19.1833 33.9902 20.4332 34.2633 22.0107C32.2062 21.6805 29.9815 21.579 27.6033 21.7078C20.9038 22.0722 16.5969 25.7624 16.8861 30.8901C17.0329 33.4911 18.4049 35.7287 20.7492 37.1904C22.7313 38.4261 25.2841 39.0304 27.9372 38.8936C31.4409 38.7122 34.1896 37.4497 36.1072 35.1411C37.5635 33.388 38.4846 31.1161 38.8913 28.2535C40.561 29.2052 41.7985 30.4576 42.482 31.9632C43.6441 34.5225 43.7119 38.7281 40.0784 42.1568C36.8949 45.1605 33.0682 46.4599 27.285 46.5C20.8699 46.4552 16.0183 44.5121 12.8638 40.7248C9.90998 37.1785 8.38342 32.0562 8.32646 25.5C8.38342 18.9438 9.90998 13.8214 12.8638 10.2751C16.0183 6.48786 20.8698 4.54484 27.285 4.49982C33.7466 4.54519 38.6828 6.49756 41.958 10.3031C43.5639 12.1692 44.7747 14.5161 45.5729 17.2524L50.1143 16.1081C49.1468 12.74 47.6243 9.83761 45.5527 7.43059C41.3539 2.55177 35.2131 0.0518362 27.3008 0H27.2691C19.373 0.0516561 13.3009 2.5611 9.22171 7.45856C5.59178 11.8167 3.71936 17.8807 3.65645 25.4821L3.65625 25.5L3.65645 25.5179C3.71936 33.1192 5.59178 39.1834 9.22171 43.5415C13.3009 48.4388 19.373 50.9485 27.2691 51H27.3008C34.3209 50.954 39.2692 49.2182 43.3457 45.3717C48.679 40.3394 48.5184 34.0316 46.7606 30.1593C45.4995 27.3825 43.0951 25.1271 39.8073 23.6375ZM27.6864 34.4003C24.7501 34.5565 21.6997 33.3118 21.5493 30.6457C21.4378 28.6689 23.0388 26.4632 27.8666 26.2004C28.4195 26.1703 28.962 26.1556 29.495 26.1556C31.2486 26.1556 32.8891 26.3165 34.3806 26.6244C33.8242 33.1859 30.5612 34.2513 27.6864 34.4003Z" fill="#A2A2A2"/>
</svg>
