<svg width="57" height="54" viewBox="0 0 57 54" fill="none" xmlns="http://www.w3.org/2000/svg">
<g clip-path="url(#clip0_34_380)">
<path d="M28.5 0C12.7582 0 0 12.0867 0 27C0 38.4434 7.51465 48.2098 18.1131 52.1437C17.8682 50.0027 17.6344 46.7332 18.2133 44.4023C18.7365 42.293 21.5531 30.9867 21.5531 30.9867C21.5531 30.9867 20.6959 29.373 20.6959 26.9789C20.6959 23.2242 22.9893 20.4188 25.8504 20.4188C28.2773 20.4188 29.4574 22.1484 29.4574 24.2262C29.4574 26.5465 27.8988 30.0059 27.0973 33.2121C26.4293 35.9016 28.5223 38.0953 31.3166 38.0953C36.382 38.0953 40.2785 33.0328 40.2785 25.7344C40.2785 19.2691 35.3801 14.7445 28.3775 14.7445C20.2729 14.7445 15.508 20.5031 15.508 26.4621C15.508 28.7824 16.4543 31.2715 17.6344 32.6215C17.8682 32.8852 17.9016 33.1277 17.8348 33.3914C17.6232 34.2457 17.1334 36.0809 17.0443 36.45C16.9219 36.9457 16.6324 37.0512 16.0869 36.8086C12.5244 35.2371 10.2979 30.3117 10.2979 26.3461C10.2979 17.8242 16.8328 10.009 29.1234 10.009C39.0094 10.009 46.691 16.6852 46.691 25.6078C46.691 34.9102 40.5012 42.3984 31.9066 42.3984C29.0232 42.3984 26.3068 40.9746 25.3717 39.2977C25.3717 39.2977 23.9467 44.4551 23.6016 45.7207C22.9559 48.0621 21.2191 51.0047 20.0613 52.7977C22.7332 53.5781 25.5609 54 28.5 54C44.2418 54 57 41.9133 57 27C57 12.0867 44.2418 0 28.5 0Z" fill="#A2A2A2"/>
</g>
<defs>
<clipPath id="clip0_34_380">
<rect width="57" height="54" fill="white"/>
</clipPath>
</defs>
</svg>
